<?xml version="1.0" encoding="UTF-8" standalone="no"?>
<!-- Created with Inkscape (http://www.inkscape.org/) -->

<svg
   width="211.90523mm"
   height="68.501343mm"
   viewBox="0 0 211.90523 68.501343"
   version="1.1"
   id="svg1"
   xmlns:xlink="http://www.w3.org/1999/xlink"
   xmlns="http://www.w3.org/2000/svg"
   xmlns:svg="http://www.w3.org/2000/svg">
  <defs
     id="defs1">
    <linearGradient
       id="linearGradient1">
      <stop
         style="stop-color:#d4d4d4;stop-opacity:1;"
         offset="0"
         id="stop1" />
      <stop
         style="stop-color:#f1f1f1;stop-opacity:1;"
         offset="0.60488796"
         id="stop2" />
    </linearGradient>
    <linearGradient
       xlink:href="#linearGradient1"
       id="linearGradient2"
       x1="-1.3369415"
       y1="37.100124"
       x2="210.56827"
       y2="37.100124"
       gradientUnits="userSpaceOnUse"
       gradientTransform="scale(1,0.92319559)" />
  </defs>
  <g
     id="layer1"
     transform="translate(1.3369415)">
    <rect
       style="fill:url(#linearGradient2);stroke-width:1.20008;stroke-linecap:square;stroke-dasharray:none;paint-order:markers stroke fill"
       id="rect1"
       width="211.90521"
       height="68.501343"
       x="-1.3369415"
       y="0" />
    <path
       d="m 29.865341,40.884305 q 0,1.224497 0.1975,1.816995 0.197499,0.592499 0.750498,0.868998 0.592498,0.236999 1.816995,0.276499 v 1.263997 l -1.224497,-0.079 q -1.895995,-0.118499 -2.883492,-0.118499 -0.947998,0 -2.843993,0.118499 l -1.303497,0.079 v -1.263997 q 1.224497,-0.0395 1.777496,-0.276499 0.592498,-0.276499 0.789998,-0.868998 0.197499,-0.592498 0.197499,-1.816995 v -8.571479 q 0,-1.777495 -0.671498,-2.488494 -0.631999,-0.710998 -1.895996,-0.710998 -1.540496,0 -2.804492,1.026998 -1.263997,0.987497 -1.974996,2.764993 v 7.97898 q 0,1.263996 0.158,1.856495 0.1975,0.552999 0.750498,0.829498 0.592499,0.236999 1.816996,0.276499 v 1.263997 l -1.224497,-0.079 q -1.895996,-0.118499 -2.883493,-0.118499 -0.947998,0 -2.843993,0.118499 l -1.303497,0.079 v -1.263997 q 1.263997,-0.0395 1.816996,-0.276499 0.552998,-0.276499 0.750498,-0.829498 0.197499,-0.592499 0.197499,-1.856495 V 23.543848 q 0,-1.026997 -0.197499,-1.500996 -0.1975,-0.473999 -0.789998,-0.671498 -0.552999,-0.1975 -1.777496,-0.237 v -1.263997 l 4.897988,-0.868997 0.631998,0.236999 V 30.81183 q 0.987498,-1.895995 2.527994,-2.962493 1.579996,-1.066497 3.159992,-1.066497 1.579996,0 2.488494,0.513499 0.947998,0.513498 1.421996,1.816995 0.473999,1.303497 0.473999,3.712991 z m 20.618923,0 q 0,1.224497 0.1975,1.816995 0.197499,0.592499 0.750498,0.868998 0.592498,0.236999 1.816995,0.276499 v 1.263997 l -1.105997,-0.079 q -2.014495,-0.118499 -3.001992,-0.118499 -0.987498,0 -2.962493,0.118499 l -1.184997,0.079 v -1.263997 q 1.224497,-0.0395 1.777496,-0.276499 0.592498,-0.276499 0.789998,-0.868998 0.197499,-0.592498 0.197499,-1.816995 v -8.571479 q 0,-1.777495 -0.671498,-2.488494 -0.631999,-0.710998 -1.895995,-0.710998 -1.540496,0 -2.804493,1.026998 -1.263997,1.026997 -1.974995,2.804493 v 7.93948 q 0,1.263996 0.157999,1.856495 0.1975,0.552999 0.750498,0.829498 0.592499,0.236999 1.816996,0.276499 v 1.263997 l -1.105997,-0.079 q -2.014495,-0.118499 -3.001993,-0.118499 -0.987497,0 -2.962492,0.118499 l -1.184997,0.079 v -1.263997 q 1.263996,-0.0395 1.816995,-0.276499 0.552999,-0.276499 0.750498,-0.829498 0.1975,-0.592499 0.1975,-1.856495 v -9.677476 q 0,-1.026997 -0.1975,-1.500996 -0.197499,-0.473999 -0.789998,-0.671499 -0.552999,-0.197499 -1.777495,-0.197499 v -1.224497 l 4.739988,-0.829498 0.631998,0.1975 v 4.186989 q 1.066497,-2.132995 2.606994,-3.238992 1.579996,-1.145497 3.238991,-1.145497 1.579996,0 2.488494,0.513499 0.947998,0.513498 1.421997,1.816995 0.473998,1.303497 0.473998,3.712991 z M 65.494202,42.5828 q 2.646493,0 3.91049,1.066498 1.263997,1.066497 1.263997,2.962492 0,1.698496 -1.026998,3.238992 -0.987497,1.540496 -2.922992,2.488494 -1.895996,0.947997 -4.463489,0.947997 -3.041493,0 -5.016488,-1.303496 -1.935495,-1.263997 -1.935495,-3.317992 0,-1.461496 0.750498,-2.646493 0.789998,-1.184997 1.974995,-1.816996 -1.066497,-0.947997 -1.066497,-2.488493 0,-0.908498 0.513499,-1.658996 0.513498,-0.789998 1.382496,-1.184997 -2.843993,-1.184997 -2.843993,-5.095488 0,-3.436491 1.856496,-5.213986 1.895995,-1.777496 4.779488,-1.777496 1.026997,0 1.777495,0.158 1.856496,0.473998 3.278492,0.710998 1.461496,0.236999 2.922993,0.236999 v 1.421997 l -2.014495,-0.0395 q -0.710998,0 -1.026998,0.0395 0.868998,1.303496 0.868998,3.080992 0,3.396991 -1.895995,5.213987 -1.895995,1.777495 -4.779488,1.777495 -1.026997,0 -1.698496,-0.157999 -0.552998,0.276499 -0.868998,0.789998 -0.315999,0.513499 -0.315999,0.987497 0,0.750498 0.671499,1.184997 0.671498,0.394999 1.974995,0.394999 z M 62.01821,28.204836 q -1.579996,0 -2.290994,1.500997 -0.710998,1.500996 -0.710998,3.91049 0,4.463489 3.515491,4.463489 1.579996,0 2.290994,-1.461497 0.710999,-1.461496 0.710999,-3.83149 0,-4.581989 -3.515492,-4.581989 z m 1.184997,23.660441 q 1.935496,0 3.357492,-1.224497 1.421996,-1.224497 1.421996,-2.962492 0,-1.303497 -0.750498,-1.895996 -0.750498,-0.552998 -2.567493,-0.552998 h -2.843993 q -1.461496,0 -2.646493,-0.394999 -1.066498,1.066497 -1.066498,3.159992 0,1.619496 1.184997,2.725493 1.184997,1.145497 3.91049,1.145497 z M 83.38769,26.78284 q 0.908498,0 1.500996,0.276499 -0.118499,1.303497 -0.197499,2.330494 -0.079,0.987498 -0.1185,1.303497 H 83.42719 q -0.0395,-0.276499 -0.434499,-0.473999 -0.355499,-0.197499 -0.829498,-0.197499 -2.527994,0 -3.633991,3.79199 v 7.070483 q 0,1.263996 0.1975,1.856495 0.236999,0.552999 0.868998,0.829498 0.671498,0.236999 2.132994,0.276499 v 1.263997 l -1.303497,-0.079 q -2.132994,-0.118499 -3.199492,-0.118499 -1.026997,0 -3.001992,0.118499 l -1.224497,0.079 v -1.263997 q 1.263997,-0.0395 1.816996,-0.276499 0.552998,-0.276499 0.750498,-0.829498 0.197499,-0.592499 0.197499,-1.856495 v -9.677476 q 0,-1.026997 -0.197499,-1.500996 -0.1975,-0.473999 -0.789998,-0.671499 -0.552999,-0.197499 -1.777496,-0.197499 v -1.224497 l 4.739988,-0.829498 0.631999,0.1975 v 4.660988 Q 79.2797,29.468833 80.464697,28.125837 81.689194,26.78284 83.38769,26.78284 Z"
       id="text1"
       style="font-size:39.4999px;font-family:Gupter;-inkscape-font-specification:Gupter;font-variant-ligatures:no-common-ligatures;stroke-width:1.22;stroke-linecap:square;paint-order:markers stroke fill"
       aria-label="hngr" />
  </g>
</svg>
